<svg xmlns="http://www.w3.org/2000/svg" width="18" height="12.712" viewBox="0 0 18 12.712"><path d="M17.831,7.456a3.809,3.809,0,0,0-.731-1.8,2.632,2.632,0,0,0-1.8-.787C12.769,4.7,9,4.7,9,4.7H9s-3.769,0-6.3.169a2.632,2.632,0,0,0-1.8.787,3.809,3.809,0,0,0-.731,1.8A29.245,29.245,0,0,0,0,10.381v1.35a29.245,29.245,0,0,0,.169,2.925,3.809,3.809,0,0,0,.731,1.8,3.186,3.186,0,0,0,1.969.788c1.463.113,6.131.169,6.131.169s3.769,0,6.3-.169a2.632,2.632,0,0,0,1.8-.788,3.809,3.809,0,0,0,.731-1.8A29.245,29.245,0,0,0,18,11.731v-1.35A29.245,29.245,0,0,0,17.831,7.456ZM7.144,13.419V8.356l4.837,2.531Z" transform="translate(0 -4.7)" fill="#354463"/></svg>