<svg xmlns="http://www.w3.org/2000/svg" width="18" height="14.579" viewBox="0 0 18 14.579"><path d="M17.9,4.738a6.637,6.637,0,0,1-2.131.561A3.624,3.624,0,0,0,17.4,3.28a7.069,7.069,0,0,1-2.355.9A3.61,3.61,0,0,0,12.4,3,3.7,3.7,0,0,0,8.7,6.7a4.328,4.328,0,0,0,.112.841A10.571,10.571,0,0,1,1.19,3.673a3.529,3.529,0,0,0-.5,1.85A3.794,3.794,0,0,0,2.311,8.607,3.426,3.426,0,0,1,.629,8.159v.056A3.669,3.669,0,0,0,3.6,11.8a5.525,5.525,0,0,1-.953.112,2.73,2.73,0,0,1-.673-.056A3.745,3.745,0,0,0,5.4,14.439a7.243,7.243,0,0,1-4.6,1.57,4.824,4.824,0,0,1-.9-.056,11.132,11.132,0,0,0,5.72,1.626A10.405,10.405,0,0,0,16.106,7.093V6.645A9.653,9.653,0,0,0,17.9,4.738Z" transform="translate(0.1 -3)" fill="#354463"/></svg>