<svg xmlns="http://www.w3.org/2000/svg" width="16" height="16" viewBox="0 0 16 16"><path d="M14.1,0H1.9A1.9,1.9,0,0,0,0,1.9V14.1A1.9,1.9,0,0,0,1.9,16H14.1A1.9,1.9,0,0,0,16,14.1V1.9A1.9,1.9,0,0,0,14.1,0ZM12,2h1.5a.472.472,0,0,1,.5.5V4a.472.472,0,0,1-.5.5H12a.472.472,0,0,1-.5-.5V2.5A.472.472,0,0,1,12,2ZM8,4.95A3.05,3.05,0,1,1,4.9,8,3.105,3.105,0,0,1,8,4.95Zm6,9.55H2a.472.472,0,0,1-.5-.5V6.5h2A3.151,3.151,0,0,0,3.15,8a4.85,4.85,0,1,0,9.7,0,2.275,2.275,0,0,0-.4-1.5h2V14A.414.414,0,0,1,14,14.5Z" fill="#354463"/></svg>