<svg xmlns="http://www.w3.org/2000/svg" width="42" height="33.124" viewBox="0 0 42 33.124"><g transform="translate(-288 -1623)"><g transform="translate(288 1619.5)" fill="none"><path d="M37.364,5.409A21.463,21.463,0,0,0,31,4.5c-3.545,0-7.364.727-10,2.727-2.636-2-6.455-2.727-10-2.727S3.636,5.227,1,7.227V33.864a.978.978,0,0,0,.909.909c.182,0,.273-.091.455-.091a22.192,22.192,0,0,1,8.636-2c3.545,0,7.364.727,10,2.727a21.9,21.9,0,0,1,10-2.727,18.506,18.506,0,0,1,8.636,1.909.82.82,0,0,0,.455.091A.978.978,0,0,0,41,33.773V7.227A12.4,12.4,0,0,0,37.364,5.409Z" stroke="none"/><path d="M 11 4.499996185302734 C 7.454540252685547 4.499996185302734 3.636360168457031 5.227268218994141 1 7.227268218994141 L 1 33.86363983154297 C 1 34.31818771362305 1.454540252685547 34.77272796630859 1.909088134765625 34.77272796630859 C 2.090911865234375 34.77272796630859 2.181819915771484 34.68182754516602 2.363639831542969 34.68182754516602 C 4.818180084228516 33.50000762939453 8.363639831542969 32.68181610107422 11 32.68181610107422 C 14.54545974731445 32.68181610107422 18.36363983154297 33.40908813476562 21 35.40909576416016 C 23.45454978942871 33.86363983154297 27.90909004211426 32.68181610107422 31 32.68181610107422 C 34 32.68181610107422 37.09091186523438 33.22727966308594 39.63637161254883 34.59090805053711 C 39.81818008422852 34.68181610107422 39.90908813476562 34.68181610107422 40.09091186523438 34.68181610107422 C 40.54545974731445 34.68181610107422 41 34.22726821899414 41 33.77272796630859 L 41 7.227268218994141 C 39.90908813476562 6.409088134765625 38.72727966308594 5.863636016845703 37.36363983154297 5.409088134765625 C 35.34545135498047 4.772727966308594 33.12726974487305 4.499996185302734 31 4.499996185302734 C 27.45454978942871 4.499996185302734 23.6363697052002 5.227268218994141 21 7.227268218994141 C 18.36363983154297 5.227268218994141 14.54545974731445 4.499996185302734 11 4.499996185302734 M 11 3.499996185302734 C 13.37015914916992 3.499996185302734 17.69680213928223 3.837272644042969 21 6.004196166992188 C 24.30320739746094 3.837272644042969 28.62984085083008 3.499996185302734 31 3.499996185302734 C 33.37765884399414 3.499996185302734 35.68215179443359 3.830356597900391 37.66436004638672 4.455379486083984 L 37.6721305847168 4.457828521728516 L 37.67987060546875 4.460407257080078 C 39.29526138305664 4.998878479003906 40.50426864624023 5.605476379394531 41.59999847412109 6.427268981933594 L 42 6.727268218994141 L 42 7.227268218994141 L 42 33.77272796630859 C 42 34.77187728881836 41.09006118774414 35.68181610107422 40.09091186523438 35.68181610107422 C 39.86421966552734 35.68181610107422 39.58209991455078 35.68181610107422 39.18914031982422 35.48532867431641 L 39.17655181884766 35.47903823852539 L 39.16415023803711 35.47238922119141 C 36.97751998901367 34.30098724365234 34.15439987182617 33.68181610107422 31 33.68181610107422 C 28.03353881835938 33.68181610107422 23.78657913208008 34.83628845214844 21.53281021118164 36.25532913208008 L 20.94706916809082 36.62413787841797 L 20.39561080932617 36.20578765869141 C 18.2501392364502 34.57817840576172 14.91337966918945 33.68181610107422 11 33.68181610107422 C 8.495128631591797 33.68181610107422 5.122119903564453 34.46353912353516 2.797458648681641 35.58282852172852 L 2.591838836669922 35.68182754516602 L 2.4349365234375 35.68182754516602 C 2.330032348632812 35.716552734375 2.148262023925781 35.77272796630859 1.909088134765625 35.77272796630859 C 0.9099388122558594 35.77272796630859 0 34.86278915405273 0 33.86363983154297 L 0 7.227268218994141 L 0 6.730697631835938 L 0.3956108093261719 6.430576324462891 C 3.756778717041016 3.880729675292969 8.482318878173828 3.499996185302734 11 3.499996185302734 Z" stroke="none" fill="#c1f7d5"/></g><g transform="translate(280.439 1618.578)" fill="none"><path d="M45,30.924a20.658,20.658,0,0,0-6.222-.889A21.414,21.414,0,0,0,29,32.7V12.258a21.414,21.414,0,0,1,9.778-2.667A20.658,20.658,0,0,1,45,10.48Z" stroke="none"/><path d="M 30 31.04053497314453 C 32.56818771362305 29.86847114562988 36.09633636474609 29.03535461425781 38.77777862548828 29.03535461425781 C 40.64027786254883 29.03535461425781 42.39079666137695 29.2285213470459 44 29.61064720153809 L 44 11.22877597808838 C 42.42020797729492 10.80526924133301 40.66728591918945 10.59090518951416 38.77777862548828 10.59090518951416 C 36.07474899291992 10.59090518951416 32.28318786621094 11.57232570648193 30 12.82925796508789 L 30 31.04053497314453 M 29 32.7020263671875 L 29 12.25757503509521 C 31.39999961853027 10.7464656829834 35.75555038452148 9.59090518951416 38.77777862548828 9.59090518951416 C 40.91110992431641 9.59090518951416 43.04444885253906 9.857575416564941 45 10.47979545593262 L 45 30.92424583435059 C 43.04444885253906 30.30202484130859 40.91110992431641 30.03535461425781 38.77777862548828 30.03535461425781 C 35.75555038452148 30.03535461425781 31.39999961853027 31.19090461730957 29 32.7020263671875 Z" stroke="none" fill="#c1f7d5"/></g></g></svg>