<svg xmlns="http://www.w3.org/2000/svg" width="38.462" height="40" viewBox="0 0 38.462 40"><g transform="translate(-3 -2)" fill="none"><path d="M40.393,10a77.38,77.38,0,0,1-18.162,2A77.38,77.38,0,0,1,4.068,10L3,14a80.5,80.5,0,0,0,12.821,2V42h4.274V30h4.274V42h4.274V16a80.5,80.5,0,0,0,12.821-2ZM22.231,10A4.156,4.156,0,0,0,26.5,6a4.156,4.156,0,0,0-4.274-4,4.156,4.156,0,0,0-4.274,4A4.156,4.156,0,0,0,22.231,10Z" stroke="none"/><path d="M 22.23076820373535 3 C 20.42575836181641 3 18.95726776123047 4.345790863037109 18.95726776123047 6 C 18.95726776123047 7.654209136962891 20.42575836181641 9 22.23076820373535 9 C 24.03578758239746 9 25.5042781829834 7.654209136962891 25.5042781829834 6 C 25.5042781829834 4.345790863037109 24.03578758239746 3 22.23076820373535 3 M 39.67871856689453 11.20037460327148 C 34.6325798034668 12.36343955993652 28.48376846313477 13 22.23076820373535 13 C 15.97776031494141 13 9.828945159912109 12.36343955993652 4.782817840576172 11.20037460327148 L 4.230491638183594 13.26828193664551 C 7.664707183837891 14.06318473815918 11.76335525512695 14.67405700683594 15.89982795715332 15.00315093994141 L 16.82051849365234 15.07640075683594 L 16.82051849365234 16 L 16.82051849365234 41 L 19.09401893615723 41 L 19.09401893615723 30 L 19.09401893615723 29 L 20.09401893615723 29 L 24.36751747131348 29 L 25.36751747131348 29 L 25.36751747131348 30 L 25.36751747131348 41 L 27.64102745056152 41 L 27.64102745056152 16 L 27.64102745056152 15.07640075683594 L 28.56171798706055 15.00315093994141 C 32.69817352294922 14.67405700683594 36.79682159423828 14.06318473815918 40.23104476928711 13.26828002929688 L 39.67871856689453 11.20037460327148 M 22.23076820373535 2 C 24.58119773864746 2 26.5042781829834 3.799999237060547 26.5042781829834 6 C 26.5042781829834 8.200000762939453 24.58119773864746 10 22.23076820373535 10 C 19.88033866882324 10 17.95726776123047 8.200000762939453 17.95726776123047 6 C 17.95726776123047 3.799999237060547 19.88033866882324 2 22.23076820373535 2 Z M 4.068378448486328 10 C 9.645298004150391 11.40000152587891 16.18375778198242 12 22.23076820373535 12 C 28.27777862548828 12 34.81622695922852 11.40000152587891 40.39315795898438 10 L 41.46154022216797 14 C 37.48716735839844 15 32.91452789306641 15.65999984741211 28.64102935791016 16 L 28.64102935791016 42 L 24.36751747131348 42 L 24.36751747131348 30 L 20.09401893615723 30 L 20.09401893615723 42 L 15.82051849365234 42 L 15.82051849365234 16 C 11.5470085144043 15.65999984741211 6.974357604980469 15 3 14 L 4.068378448486328 10 Z" stroke="none" fill="#c1f7d5"/></g></svg>