<svg xmlns="http://www.w3.org/2000/svg" width="33.455" height="40" viewBox="0 0 33.455 40"><g transform="translate(-3 -1)" fill="none"><path d="M19.727,41A16.94,16.94,0,0,0,36.455,23.857,16.94,16.94,0,0,0,19.727,41ZM7.832,18.619a4.707,4.707,0,0,0,4.646,4.762,4.546,4.546,0,0,0,2.639-.838l-.037.362a4.648,4.648,0,1,0,9.293,0l-.037-.362a4.5,4.5,0,0,0,2.639.838,4.771,4.771,0,0,0,1.989-9.048,4.771,4.771,0,0,0-1.989-9.048,4.546,4.546,0,0,0-2.639.838l.037-.362a4.648,4.648,0,1,0-9.293,0l.037.362a4.5,4.5,0,0,0-2.639-.838,4.771,4.771,0,0,0-1.989,9.048A4.754,4.754,0,0,0,7.832,18.619ZM19.727,9.571a4.763,4.763,0,1,1-4.646,4.762A4.707,4.707,0,0,1,19.727,9.571ZM3,23.857A16.94,16.94,0,0,0,19.727,41,16.94,16.94,0,0,0,3,23.857Z" stroke="none"/><path d="M 20.7588005065918 39.96604156494141 C 24.56657791137695 39.71449661254883 28.11399841308594 38.07302474975586 30.839111328125 35.28018951416016 C 33.5765380859375 32.47475814819336 35.18280410766602 28.81800842285156 35.42301177978516 24.89109992980957 C 31.61523628234863 25.14264297485352 28.06781578063965 26.78411674499512 25.34270286560059 29.57695007324219 C 22.60527420043945 32.38238143920898 20.99901008605957 36.03913116455078 20.7588005065918 39.96604156494141 M 18.69574356079102 39.96604156494141 C 18.45553398132324 36.03913116455078 16.84926986694336 32.38238143920898 14.11184215545654 29.57695007324219 C 11.38672733306885 26.78411674499512 7.839308261871338 25.14264297485352 4.031531810760498 24.89109992980957 C 4.271740436553955 28.81800842285156 5.878004550933838 32.47475814819336 8.615431785583496 35.28018951416016 C 11.34054660797119 38.07302474975586 14.88796615600586 39.71449661254883 18.69574356079102 39.96604156494141 M 19.72727203369141 26.66666984558105 C 21.72235679626465 26.66666984558105 23.34835815429688 25.00528526306152 23.37344551086426 22.95307159423828 L 23.3418025970459 22.64505958557129 L 23.11482238769531 20.43569946289062 L 24.91946220397949 21.73031997680664 C 25.51280212402344 22.15596961975098 26.22385215759277 22.38095092773438 26.97576141357422 22.38095092773438 C 28.98642158508301 22.38095092773438 30.62222290039062 20.6933708190918 30.62222290039062 18.61904907226562 C 30.62222290039062 17.16090965270996 29.81894111633301 15.86308002471924 28.5258617401123 15.23202037811279 L 26.68436241149902 14.33331966400146 L 28.5258617401123 13.4346399307251 C 29.81894111633301 12.80358982086182 30.62222290039062 11.50576019287109 30.62222290039062 10.04761981964111 C 30.62222290039062 7.973299980163574 28.98642158508301 6.285709857940674 26.97576141357422 6.285709857940674 C 26.22824287414551 6.285709857940674 25.53321266174316 6.506879806518555 24.90996170043945 6.943079948425293 L 23.11830139160156 8.197050094604492 L 23.3418025970459 6.021609783172607 L 23.37344551086426 5.713598251342773 C 23.34835815429688 3.661383867263794 21.72235679626465 2 19.72727203369141 2 C 17.73232078552246 2 16.10639190673828 3.661510705947876 16.08110809326172 5.713550567626953 L 16.11275291442871 6.021639823913574 L 16.33966255187988 8.230939865112305 L 14.53507232666016 6.936349868774414 C 13.94174194335938 6.510700225830078 13.23069190979004 6.285709857940674 12.47879219055176 6.285709857940674 C 10.4681224822998 6.285709857940674 8.832322120666504 7.973299980163574 8.832322120666504 10.04761981964111 C 8.832322120666504 11.50576019287109 9.635601997375488 12.80358982086182 10.92868232727051 13.4346399307251 L 12.77018165588379 14.33331966400146 L 10.92868232727051 15.23202037811279 C 9.635601997375488 15.86308002471924 8.832322120666504 17.16090965270996 8.832322120666504 18.61904907226562 C 8.832322120666504 20.6933708190918 10.4681224822998 22.38095092773438 12.47879219055176 22.38095092773438 C 13.22631168365479 22.38095092773438 13.92134189605713 22.15978050231934 14.54458236694336 21.72359085083008 L 16.33617210388184 20.46966934204102 L 16.11275291442871 22.64502906799316 L 16.08110809326172 22.9531192779541 C 16.10639190673828 25.00515937805176 17.73232078552246 26.66666984558105 19.72727203369141 26.66666984558105 M 19.72727203369141 8.571430206298828 C 22.84074211120605 8.571430206298828 25.37374114990234 11.15620994567871 25.37374114990234 14.33333015441895 C 25.37374114990234 17.51045989990234 22.84074211120605 20.09523963928223 19.72727203369141 20.09523963928223 C 16.61380195617676 20.09523963928223 14.08081245422363 17.51045989990234 14.08081245422363 14.33333015441895 C 14.08081245422363 11.15620994567871 16.61380195617676 8.571430206298828 19.72727203369141 8.571430206298828 M 19.72727203369141 41 C 10.49010181427002 41 3.000002145767212 33.32381057739258 3.000002145767212 23.85713958740234 C 12.23717212677002 23.85713958740234 19.72727203369141 31.5333309173584 19.72727203369141 41 Z M 19.72727203369141 41 C 19.72727203369141 31.5333309173584 27.21737289428711 23.85713958740234 36.45454025268555 23.85713958740234 C 36.45454025268555 33.32381057739258 28.96444129943848 41 19.72727203369141 41 Z M 19.72727203369141 27.66666984558105 C 17.16242218017578 27.66666984558105 15.08081245422363 25.53334045410156 15.08081245422363 22.90476036071777 L 15.11798191070557 22.54286003112793 C 14.35596179962158 23.07619094848633 13.46383190155029 23.38095092773438 12.47879219055176 23.38095092773438 C 9.913942337036133 23.38095092773438 7.832322120666504 21.24761962890625 7.832322120666504 18.61904907226562 C 7.832322120666504 16.71427917480469 8.928892135620117 15.09523963928223 10.49010181427002 14.33333015441895 C 8.928892135620117 13.57143020629883 7.832322120666504 11.95238018035889 7.832322120666504 10.04761981964111 C 7.832322120666504 7.419050216674805 9.913942337036133 5.285709857940674 12.47879219055176 5.285709857940674 C 13.46383190155029 5.285709857940674 14.37455177307129 5.590479850769043 15.11798191070557 6.123809814453125 L 15.08081245422363 5.761909961700439 C 15.08081245422363 3.133330106735229 17.16242218017578 1 19.72727203369141 1 C 22.29212188720703 1 24.37374114990234 3.133330106735229 24.37374114990234 5.761909961700439 L 24.33656120300293 6.123809814453125 C 25.09858131408691 5.590479850769043 25.9907112121582 5.285709857940674 26.97576141357422 5.285709857940674 C 29.54060173034668 5.285709857940674 31.62222290039062 7.419050216674805 31.62222290039062 10.04761981964111 C 31.62222290039062 11.95238018035889 30.5256519317627 13.57143020629883 28.96444129943848 14.33333015441895 C 30.5256519317627 15.09523963928223 31.62222290039062 16.71427917480469 31.62222290039062 18.61904907226562 C 31.62222290039062 21.24761962890625 29.54060173034668 23.38095092773438 26.97576141357422 23.38095092773438 C 25.9907112121582 23.38095092773438 25.08000183105469 23.07619094848633 24.33656120300293 22.54286003112793 L 24.37374114990234 22.90476036071777 C 24.37374114990234 25.53334045410156 22.29212188720703 27.66666984558105 19.72727203369141 27.66666984558105 Z M 19.72727203369141 9.571430206298828 C 17.16242218017578 9.571430206298828 15.08081245422363 11.70475959777832 15.08081245422363 14.33333015441895 C 15.08081245422363 16.96190071105957 17.16242218017578 19.09523963928223 19.72727203369141 19.09523963928223 C 22.29212188720703 19.09523963928223 24.37374114990234 16.96190071105957 24.37374114990234 14.33333015441895 C 24.37374114990234 11.70475959777832 22.29212188720703 9.571430206298828 19.72727203369141 9.571430206298828 Z" stroke="none" fill="#c1f7d5"/></g></svg>