<svg xmlns="http://www.w3.org/2000/svg" width="40" height="38.731" viewBox="0 0 40 38.731"><g transform="translate(-2 -3)" fill="none"><path d="M22,41.731l-2.9-2.786C8.8,29.088,2,22.587,2,14.609,2,8.108,6.84,3,13,3a11.731,11.731,0,0,1,9,4.411A11.731,11.731,0,0,1,31,3c6.16,0,11,5.108,11,11.609,0,7.978-6.8,14.479-17.1,24.357Z" stroke="none"/><path d="M 22.00263404846191 40.34658432006836 L 24.20784187316895 38.24405670166016 L 24.28680229187012 38.1683349609375 C 34.35112380981445 28.51646423339844 41 22.14007568359375 41 14.60867500305176 C 41 8.659885406494141 36.60748291015625 4.00000524520874 31.00000190734863 4.00000524520874 C 27.89269256591797 4.00000524520874 24.81913185119629 5.510004997253418 22.77824211120605 8.039264678955078 L 22.00000190734863 9.003725051879883 L 21.22176170349121 8.039264678955078 C 19.18087196350098 5.510004997253418 16.1073112487793 4.00000524520874 13.00000190734863 4.00000524520874 C 7.392521858215332 4.00000524520874 3.000001907348633 8.659885406494141 3.000001907348633 14.60867500305176 C 3.000001907348633 22.15330505371094 9.669901847839355 28.53621482849121 19.76605224609375 38.19794464111328 L 19.79280281066895 38.22355651855469 L 22.00263404846191 40.34658432006836 M 22.00000190734863 41.73077392578125 L 19.10000228881836 38.94468688964844 C 8.800002098083496 29.08786582946777 2.000001907348633 22.58700561523438 2.000001907348633 14.60867500305176 C 2.000001907348633 8.107814788818359 6.840002059936523 3.000005006790161 13.00000190734863 3.000005006790161 C 16.48000144958496 3.000005006790161 19.82000160217285 4.70964527130127 22.00000190734863 7.411294937133789 C 24.18000221252441 4.70964527130127 27.5200023651123 3.000005006790161 31.00000190734863 3.000005006790161 C 37.16000366210938 3.000005006790161 42 8.107814788818359 42 14.60867500305176 C 42 22.58700561523438 35.20000076293945 29.08786582946777 24.90000152587891 38.96579360961914 L 22.00000190734863 41.73077392578125 Z" stroke="none" fill="#c1f7d5"/></g></svg>