<svg xmlns="http://www.w3.org/2000/svg" width="36.667" height="40" viewBox="0 0 36.667 40"><g transform="translate(-1)" fill="none"><path d="M37.667,9.167V33.333A6.686,6.686,0,0,1,31,40H18.833a6.655,6.655,0,0,1-4.75-1.983L1,24.717s2.1-2.05,2.167-2.083a1.975,1.975,0,0,1,1.317-.483,2.036,2.036,0,0,1,1,.267c.067.017,7.183,4.1,7.183,4.1V6.667a2.5,2.5,0,1,1,5,0V18.333h1.667V2.5a2.5,2.5,0,0,1,5,0V18.333H26V4.167a2.5,2.5,0,0,1,5,0V18.333h1.667V9.167a2.5,2.5,0,0,1,5,0Z" stroke="none"/><path d="M 21.83333206176758 1 C 21.0062313079834 1 20.33333206176758 1.672901153564453 20.33333206176758 2.5 L 20.33333206176758 18.33333015441895 L 20.33333206176758 19.33333015441895 L 19.33333206176758 19.33333015441895 L 17.66666221618652 19.33333015441895 L 16.66666221618652 19.33333015441895 L 16.66666221618652 18.33333015441895 L 16.66666221618652 6.666660308837891 C 16.66666221618652 5.839561462402344 15.9937629699707 5.166660308837891 15.16666221618652 5.166660308837891 C 14.33956146240234 5.166660308837891 13.66666221618652 5.839561462402344 13.66666221618652 6.666660308837891 L 13.66666221618652 26.51667022705078 L 13.66666221618652 28.24335861206055 L 12.16899299621582 27.38404083251953 C 9.608562469482422 25.91493606567383 5.779697418212891 23.72257804870605 5.120704650878906 23.35677719116211 L 5.112911224365234 23.35482978820801 L 4.997703552246094 23.29083061218262 C 4.827133178710938 23.19606018066406 4.658870697021484 23.14999961853027 4.483333587646484 23.14999961853027 C 4.224281311035156 23.14999961853027 4.007400512695312 23.22855949401855 3.820270538330078 23.39015960693359 L 3.751804351806641 23.44929504394531 C 3.574131011962891 23.61300468444824 3.028610229492188 24.13869285583496 2.417766571044922 24.73192977905273 L 14.79510116577148 37.31425094604492 C 15.86787223815918 38.40132141113281 17.30201148986816 39 18.83333206176758 39 L 31.00000190734863 39 C 32.50626373291016 39 33.92725372314453 38.40853881835938 35.001220703125 37.33456039428711 C 36.07520294189453 36.26058959960938 36.66666030883789 34.83959197998047 36.66666030883789 33.33332824707031 L 36.66666030883789 9.166669845581055 C 36.66666030883789 8.339559555053711 35.9937629699707 7.666660308837891 35.16666030883789 7.666660308837891 C 34.33956146240234 7.666660308837891 33.66666412353516 8.339559555053711 33.66666412353516 9.166669845581055 L 33.66666412353516 18.33333015441895 L 33.66666412353516 19.33333015441895 L 32.66666412353516 19.33333015441895 L 31.00000190734863 19.33333015441895 L 30.00000190734863 19.33333015441895 L 30.00000190734863 18.33333015441895 L 30.00000190734863 4.166660308837891 C 30.00000190734863 3.339561462402344 29.32710266113281 2.666671752929688 28.50000190734863 2.666671752929688 C 27.67290115356445 2.666671752929688 27.00000190734863 3.339561462402344 27.00000190734863 4.166660308837891 L 27.00000190734863 18.33333015441895 L 27.00000190734863 19.33333015441895 L 26.00000190734863 19.33333015441895 L 24.33333206176758 19.33333015441895 L 23.33333206176758 19.33333015441895 L 23.33333206176758 18.33333015441895 L 23.33333206176758 2.5 C 23.33333206176758 1.672901153564453 22.66043281555176 1 21.83333206176758 1 M 21.83333206176758 0 C 23.2166633605957 0 24.33333206176758 1.116661071777344 24.33333206176758 2.5 L 24.33333206176758 18.33333015441895 L 26.00000190734863 18.33333015441895 L 26.00000190734863 4.166660308837891 C 26.00000190734863 2.783329010009766 27.11666107177734 1.666671752929688 28.50000190734863 1.666671752929688 C 29.88333129882812 1.666671752929688 31.00000190734863 2.783329010009766 31.00000190734863 4.166660308837891 L 31.00000190734863 18.33333015441895 L 32.66666412353516 18.33333015441895 L 32.66666412353516 9.166669845581055 C 32.66666412353516 7.783329010009766 33.78333282470703 6.666660308837891 35.16666030883789 6.666660308837891 C 36.55000305175781 6.666660308837891 37.66666030883789 7.783329010009766 37.66666030883789 9.166669845581055 L 37.66666030883789 33.33332824707031 C 37.66666030883789 37 34.66667175292969 40 31.00000190734863 40 L 18.83333206176758 40 C 17.03333282470703 40 15.33333206176758 39.28332901000977 14.08333206176758 38.01665878295898 L 1.000003814697266 24.71665954589844 C 1.000003814697266 24.71665954589844 3.100002288818359 22.66666984558105 3.166660308837891 22.63332939147949 C 3.533332824707031 22.31666946411133 3.983333587646484 22.14999961853027 4.483333587646484 22.14999961853027 C 4.850002288818359 22.14999961853027 5.183330535888672 22.25 5.483333587646484 22.41666030883789 C 5.550003051757812 22.43333053588867 12.66666221618652 26.51667022705078 12.66666221618652 26.51667022705078 L 12.66666221618652 6.666660308837891 C 12.66666221618652 5.283329010009766 13.78333282470703 4.166660308837891 15.16666221618652 4.166660308837891 C 16.55000114440918 4.166660308837891 17.66666221618652 5.283329010009766 17.66666221618652 6.666660308837891 L 17.66666221618652 18.33333015441895 L 19.33333206176758 18.33333015441895 L 19.33333206176758 2.5 C 19.33333206176758 1.116661071777344 20.45000267028809 0 21.83333206176758 0 Z" stroke="none" fill="#c1f7d5"/></g></svg>