<svg xmlns="http://www.w3.org/2000/svg" width="40" height="40" viewBox="0 0 40 40"><g transform="translate(-0.69 -0.69)" fill="none"><path d="M34.837,26.543,40.69,20.69l-5.853-5.853V6.543H26.543L20.69.69,14.837,6.543H6.543v8.294L.69,20.69l5.853,5.853v8.294h8.294L20.69,40.69l5.853-5.853h8.294V26.543ZM20.69,31.3A10.61,10.61,0,1,1,31.3,20.69,10.618,10.618,0,0,1,20.69,31.3Z" stroke="none"/><path d="M 20.68999862670898 39.27577972412109 L 25.83611869812012 34.12965774536133 L 26.12901878356934 33.83676910400391 L 26.54322814941406 33.83676910400391 L 33.83676910400391 33.83676910400391 L 33.83676910400391 26.54322814941406 L 33.83676910400391 26.12901878356934 L 34.12965774536133 25.83611869812012 L 39.27577972412109 20.68999862670898 L 34.12965774536133 15.54387855529785 L 33.83676910400391 15.25097846984863 L 33.83676910400391 14.83676815032959 L 33.83676910400391 7.543228626251221 L 26.54322814941406 7.543228626251221 L 26.12901878356934 7.543228626251221 L 25.83611869812012 7.250338554382324 L 20.68999862670898 2.104218721389771 L 15.54387855529785 7.250338554382324 L 15.25097846984863 7.543228626251221 L 14.83676815032959 7.543228626251221 L 7.543228626251221 7.543228626251221 L 7.543228626251221 14.83676815032959 L 7.543228626251221 15.25097846984863 L 7.250338554382324 15.54387855529785 L 2.104218721389771 20.68999862670898 L 7.250338554382324 25.83611869812012 L 7.543228626251221 26.12901878356934 L 7.543228626251221 26.54322814941406 L 7.543228626251221 33.83676910400391 L 14.83676815032959 33.83676910400391 L 15.25097846984863 33.83676910400391 L 15.54387855529785 34.12965774536133 L 20.68999862670898 39.27577972412109 M 20.68999862670898 9.07991886138916 C 27.09181785583496 9.07991886138916 32.30007934570312 14.28817844390869 32.30007934570312 20.68999862670898 C 32.30007934570312 27.09181785583496 27.09181785583496 32.30007934570312 20.68999862670898 32.30007934570312 C 14.28817844390869 32.30007934570312 9.07991886138916 27.09181785583496 9.07991886138916 20.68999862670898 C 9.07991886138916 14.28817844390869 14.28817844390869 9.07991886138916 20.68999862670898 9.07991886138916 M 20.68999862670898 40.68999862670898 L 14.83676815032959 34.83676910400391 L 6.543228626251221 34.83676910400391 L 6.543228626251221 26.54322814941406 L 0.6899986267089844 20.68999862670898 L 6.543228626251221 14.83676815032959 L 6.543228626251221 6.543228626251221 L 14.83676815032959 6.543228626251221 L 20.68999862670898 0.6899986267089844 L 26.54322814941406 6.543228626251221 L 34.83676910400391 6.543228626251221 L 34.83676910400391 14.83676815032959 L 40.68999862670898 20.68999862670898 L 34.83676910400391 26.54322814941406 L 34.83676910400391 34.83676910400391 L 26.54322814941406 34.83676910400391 L 20.68999862670898 40.68999862670898 Z M 20.68999862670898 10.07991886138916 C 14.83676815032959 10.07991886138916 10.07991886138916 14.83676815032959 10.07991886138916 20.68999862670898 C 10.07991886138916 26.54322814941406 14.83676815032959 31.30007934570312 20.68999862670898 31.30007934570312 C 26.54322814941406 31.30007934570312 31.30007934570312 26.54322814941406 31.30007934570312 20.68999862670898 C 31.30007934570312 14.83676815032959 26.54322814941406 10.07991886138916 20.68999862670898 10.07991886138916 Z" stroke="none" fill="#c1f7d5"/></g></svg>