<svg xmlns="http://www.w3.org/2000/svg" width="42" height="42" viewBox="0 0 42 42"><g transform="translate(-287 -1195)"><g transform="translate(286 1194)" fill="none"><path d="M19.9,36.2A14.035,14.035,0,0,1,7.6,22.271a14.263,14.263,0,0,1,.369-3.145l8.416,8.416V29.3A3.524,3.524,0,0,0,19.9,32.813Zm12.123-4.463A3.486,3.486,0,0,0,28.684,29.3H26.927V24.028a1.762,1.762,0,0,0-1.757-1.757H14.628V18.757h3.514A1.762,1.762,0,0,0,19.9,17V13.486h3.514a3.524,3.524,0,0,0,3.514-3.514v-.72a14.024,14.024,0,0,1,5.1,22.489Z" stroke="none"/><path d="M 18.89882278442383 35.02198791503906 L 18.89882278442383 33.701416015625 C 16.88933372497559 33.24527740478516 15.38487339019775 31.44460678100586 15.38487339019775 29.29909133911133 L 15.38487339019775 27.95633125305176 L 8.646968841552734 21.21842575073242 C 8.61555004119873 21.57439613342285 8.600003242492676 21.92438888549805 8.600003242492676 22.27118110656738 C 8.600003242492676 25.47395133972168 9.769773483276367 28.5518913269043 11.89383411407471 30.93802070617676 C 13.74663352966309 33.01943969726562 16.20201110839844 34.444091796875 18.89882278442383 35.02198791503906 M 32.18478393554688 29.9697265625 C 33.82276153564453 27.74074745178223 34.71160507202148 25.05496788024902 34.71160507202148 22.27118110656738 C 34.71160507202148 19.62668991088867 33.9211540222168 17.07954978942871 32.42569351196289 14.90511035919189 C 31.23851776123047 13.17892169952393 29.67476844787598 11.7762975692749 27.85217666625977 10.79197692871094 C 27.46556091308594 12.89102363586426 25.62195205688477 14.4863109588623 23.41277313232422 14.4863109588623 L 20.89882278442383 14.4863109588623 L 20.89882278442383 17.0002613067627 C 20.89882278442383 18.52046012878418 19.66205406188965 19.75723075866699 18.14185333251953 19.75723075866699 L 15.62790393829346 19.75723075866699 L 15.62790393829346 21.27118110656738 L 25.16975402832031 21.27118110656738 C 26.6899528503418 21.27118110656738 27.92673301696777 22.50796127319336 27.92673301696777 24.02816009521484 L 27.92673301696777 28.29907989501953 L 28.6837043762207 28.29907989501953 C 30.0760498046875 28.29907989501953 31.34781646728516 28.93251991271973 32.18478393554688 29.9697265625 M 19.89882278442383 36.20400238037109 C 12.95877361297607 35.34308242797852 7.600003719329834 29.43965148925781 7.600003719329834 22.27118110656738 C 7.600003719329834 21.18185997009277 7.740563869476318 20.14525032043457 7.968963623046875 19.12619972229004 L 16.38487434387207 27.54211044311523 L 16.38487434387207 29.29909133911133 C 16.38487434387207 31.23176002502441 17.96615409851074 32.81304168701172 19.89882278442383 32.81304168701172 L 19.89882278442383 36.20400238037109 Z M 32.02195358276367 31.74128150939941 C 31.56514358520508 30.31813049316406 30.26498413085938 29.29907989501953 28.6837043762207 29.29907989501953 L 26.92673301696777 29.29907989501953 L 26.92673301696777 24.02816009521484 C 26.92673301696777 23.06182098388672 26.13609313964844 22.27118110656738 25.16975402832031 22.27118110656738 L 14.62790393829346 22.27118110656738 L 14.62790393829346 18.75723075866699 L 18.14185333251953 18.75723075866699 C 19.10819435119629 18.75723075866699 19.89882278442383 17.96660041809082 19.89882278442383 17.0002613067627 L 19.89882278442383 13.4863109588623 L 23.41277313232422 13.4863109588623 C 25.3454532623291 13.4863109588623 26.92673301696777 11.90503025054932 26.92673301696777 9.972360610961914 L 26.92673301696777 9.25200080871582 C 32.07466506958008 11.34280109405518 35.71160507202148 16.38532066345215 35.71160507202148 22.27118110656738 C 35.71160507202148 25.92568969726562 34.30602264404297 29.24637985229492 32.02195358276367 31.74128150939941 Z" stroke="none" fill="#c1f7d5"/></g><g transform="translate(286 1194)" fill="none"><path d="M22,2A20,20,0,1,0,42,22,20.007,20.007,0,0,0,22,2Z" stroke="none"/><path d="M 22.00000190734863 2.000003814697266 C 10.96000289916992 2.000003814697266 2.000003814697266 10.96000289916992 2.000003814697266 22.00000190734863 C 2.000003814697266 33.04000091552734 10.96000289916992 42 22.00000190734863 42 C 33.04000091552734 42 42 33.04000091552734 42 22.00000190734863 C 42 10.96000289916992 33.04000091552734 2.000003814697266 22.00000190734863 2.000003814697266 M 22.00000190734863 1.000003814697266 C 24.83312225341797 1.000003814697266 27.58266258239746 1.555671691894531 30.17223167419434 2.651573181152344 C 32.67268371582031 3.709762573242188 34.91843414306641 5.224220275878906 36.84711074829102 7.15289306640625 C 38.77578353881836 9.081573486328125 40.29024124145508 11.32732009887695 41.34843063354492 13.82777214050293 C 42.44433212280273 16.4173412322998 43 19.1668815612793 43 22.00000190734863 C 43 24.83312225341797 42.44433212280273 27.58266258239746 41.34843063354492 30.17223167419434 C 40.29024124145508 32.67268371582031 38.77578353881836 34.91843414306641 36.84711074829102 36.84711074829102 C 34.91843414306641 38.77578353881836 32.67268371582031 40.29024124145508 30.17223167419434 41.34843063354492 C 27.58266258239746 42.44433212280273 24.83312225341797 43 22.00000190734863 43 C 19.1668815612793 43 16.4173412322998 42.44433212280273 13.82777214050293 41.34843063354492 C 11.32732009887695 40.29024124145508 9.081573486328125 38.77578353881836 7.15289306640625 36.84711074829102 C 5.224220275878906 34.91843414306641 3.709762573242188 32.67268371582031 2.651573181152344 30.17223167419434 C 1.555671691894531 27.58266258239746 1.000003814697266 24.83312225341797 1.000003814697266 22.00000190734863 C 1.000003814697266 19.1668815612793 1.555671691894531 16.4173412322998 2.651573181152344 13.82777214050293 C 3.709762573242188 11.32732009887695 5.224220275878906 9.081573486328125 7.15289306640625 7.15289306640625 C 9.081573486328125 5.224220275878906 11.32732009887695 3.709762573242188 13.82777214050293 2.651573181152344 C 16.4173412322998 1.555671691894531 19.1668815612793 1.000003814697266 22.00000190734863 1.000003814697266 Z" stroke="none" fill="#c1f7d5"/></g></g></svg>